<?xml version="1.0" encoding="utf-8"?>
<!-- Generator: Adobe Illustrator 25.2.3, SVG Export Plug-In . SVG Version: 6.00 Build 0)  -->
<svg version="1.1" xmlns="http://www.w3.org/2000/svg" xmlns:xlink="http://www.w3.org/1999/xlink" x="0px" y="0px"
	 viewBox="0 0 144 144" style="enable-background:new 0 0 144 144;" xml:space="preserve">
<style type="text/css">
	.st0{fill:#346737;}
	.st1{fill:#FFFFFF;}
	.st2{fill:#FFFFFF;stroke:#FFFFFF;stroke-width:0.5;stroke-miterlimit:10;}
	.st3{font-family:'Arbotek-LightRounded';}
	.st4{font-size:27.8941px;}
</style>
<g id="Layer_1">
</g>
<g id="Isolation_Mode">
	<g>
		<rect x="0" y="0" class="st0" width="144" height="144"/>
		<g>
			<g>
				<g>
					<path class="st1" d="M57.6,63.2C55.8,57,51,51.8,44.3,51.3c-6-0.4-11.2,2.7-16.3,5.5c-0.1-0.1-0.2-0.2-0.2-0.3
						c-0.4-0.4-0.7-0.9-1.1-1.3c-0.8-0.9-1.6-1.7-2.4-2.5c-0.7-0.7-1.9-0.7-2.6,0c-0.7,0.7-0.7,1.9,0,2.6c0.8,0.8,1.6,1.6,2.4,2.4
						c0.2,0.3,0.5,0.5,0.7,0.8c-0.3,0.1-0.6,0.3-0.9,0.4c-3.1,1.4-6.8,2-9.1,4.8c-1.9,2.4-2.4,5.5-2.2,8.5c0.3,3.5,1.1,7,2.4,10.2
						c1.3,3.4,3.2,6.5,6.2,8.8c1.1,0.8,2.6-1,1.5-1.9c-4.4-3.6-6-9.7-6.8-15.1c-0.3-2.3-0.5-5.2,0.6-7.3c1.4-2.7,4.7-3.1,7.2-4.2
						c5.9-2.5,11.2-7.1,17.8-7.9c5.6-0.7,10.2,2.8,12.1,8c2.6,7.2-0.2,14.4-2.1,21.3c-0.6,2.3,2.7,3.1,3.5,1
						C57.5,78.4,59.7,70.4,57.6,63.2z"/>
					<path class="st1" d="M87.2,33c-1.3-1.6-3.1-3-4.7-4.4c-0.9-0.8-1.9-1.7-2.8-2.5c1.1-0.5,1.4-1.6,1.4-2.7
						c0.1-1.3,0.2-2.5,0.2-3.8c0.1-2.2-0.9-4-3.2-4.4c-2.4-0.4-5.1-0.1-7.5,0c-2.5,0.1-4.9,0.3-7.4,0.6c-1.2,0.1-2.5,0.3-3.7,0.5
						c-1.2,0.2-2.5,0.2-3.6,0.8c-2.2,1.1-2.2,3.7-2.3,5.9c-0.1,1.3-0.4,2.9,0.9,3.7c0.1,0.1,0.2,0.1,0.3,0.1c0,0-0.1,0.1-0.1,0.1
						c-2.3,1.4-4.4,3.1-6.6,4.8c-0.9,0.7-1.8,1.5-2.2,2.6c-0.5,1.2-0.3,2.6-0.3,3.9c0.1,3,0.1,6.1,0.2,9.1c0,1.8,2.8,1.8,2.8,0
						c0-2.7,0-5.4,0-8.1c0-1.1-0.2-2.4,0.1-3.5c0.2-1,1.3-1.5,2.1-2.1c1.9-1.4,3.9-2.7,5.9-3.9c1.1-0.6,2.2-1.2,3.3-1.8
						c1-0.5,2.1-0.9,3-1.6c3.1,0.1,6.2,0.1,9.3,0.2c0.7,0,1.3,0,2,0c0,0,0,0,0.1,0.1c3,2.6,6,5.2,8.9,7.9c1.2,1.2,2.1,2.4,2.2,4.1
						c0.1,2.1,0,4.1,0,6.2l-0.1,24.8c0,4.8,0,9.5-0.1,14.3c0,1.5,1.5,2.1,2.6,1.6c0.2,0,0.4-0.2,0.5-0.3c0.3-0.3,0.5-0.7,0.5-1.3
						c0-8.6,0.1-17.3,0.1-25.9c0-4.4,0-8.8,0-13.2C89.3,40.6,89.9,36.3,87.2,33z M68.1,22.7c-3.6,0.1-7.2,0.2-10.8,0.2c0,0,0,0,0,0
						c0-0.7,0-1.3,0.1-2c0-0.3,0-0.9,0.2-1.2c0.3-0.3,1.1-0.3,1.5-0.3c3-0.3,5.9-0.5,8.9-0.6c2.9-0.1,5.8-0.2,8.7-0.1
						c0.3,0,0.8-0.1,1.2,0.1c0,0,0,0,0,0.1c0,0.3,0,0.6,0,0.9c0,0.9-0.1,1.9-0.1,2.8c-0.5,0-1,0-1.5,0c-0.9,0-1.7,0-2.6,0
						C71.7,22.7,69.9,22.7,68.1,22.7z"/>
					<path class="st1" d="M73.1,36.2c-1.4-0.8-3.3-0.4-4.9-0.3c-1.7,0.1-3.3,0.1-5,0.2c-3.3,0.1-6.5,0.2-9.8,0.4
						c-2.2,0.1-2.2,3.5,0,3.4c3.3-0.1,6.5-0.1,9.8-0.2c1.6,0,3.2-0.1,4.8-0.1c0.8,0,1.6,0,2.4-0.1c0.9,0,1.9,0,2.7-0.5
						C74.1,38.4,74.2,36.8,73.1,36.2z"/>
					<path class="st1" d="M130.5,42c-0.7-3.6-3.5-5.9-7-6.8c-3.5-0.9-7.3-0.1-10.6-1.6c-1.9-0.8-3.6-2.1-5.7-2.6
						c-2-0.5-4.1-0.2-6,0.6c-0.5,0.2-1,0.5-1.4,0.8c-0.4,0.2-0.8,0.5-1.2,0.8c0,0,0,0-0.1,0.1c-0.2,0.1-0.3,0.3-0.5,0.4
						c-2,1.9-3.4,4.5-4.2,7.2c-0.7,2.2,2.8,3.2,3.5,1c0.9-2.7,2.4-5.4,5.1-6.7c1.2-0.6,2.7-0.8,4-0.5c1.6,0.4,2.9,1.3,4.3,2
						c3.2,1.5,6.5,1.4,10,1.8c2.4,0.2,5.3,1.1,6.1,3.6c0.9,3,0.2,6.6-0.9,9.4c-1.2,3.3-3.4,5.9-5.5,8.7c-2,2.7-3.3,5.8-4,9.1
						c-0.3,1.6-0.5,3.3-0.5,5c0,1.5,0.3,3.1,0,4.6c-0.3,1.9-1.7,2.9-3.3,3.4c-1.3,0.2-2.6,0.2-3.8,0.1c-0.1,0-0.2,0-0.3-0.1
						c-3.9-0.9-7.6-2.8-10.9-4.8c-2-1.2-3.9,2-1.9,3.2c0.3,0.2,0.6,0.3,0.9,0.5c0.9,0.6,1.9,1.1,2.9,1.6c2.3,1.2,4.8,2.2,7.3,2.9
						c3.6,1,7.6,0.9,10.5-1.7c3-2.7,2.3-6.6,2.4-10.2c0-3.7,1.1-7.4,3.2-10.5c1.1-1.7,2.4-3.2,3.6-4.8c1.1-1.6,2-3.2,2.7-5
						C130.5,49.9,131.2,45.7,130.5,42z"/>
				</g>
				<path class="st1" d="M118.9,42.9c-2.8,1.2-5.3,3-7.5,5c-0.1-0.6-0.2-1.2-0.3-1.9c-0.4-1.9-1.2-3.8-2.4-5.5c-0.5-0.7-1.3-1-2-0.5
					c-0.7,0.4-1,1.4-0.5,2c0.9,1.4,1.5,2.9,1.7,4.6c0,0.1,0,0.4,0,0.5c0,0.2,0,0.4,0,0.7c0,0.4,0,0.8,0,1.2c0,0.2,0,0.5,0,0.7
					c0,0.1,0,0.2,0,0.3c0,0,0,0,0,0.1c-0.1,0.5-0.2,1.1-0.2,1.6c-0.9,1-1.8,2-2.6,3.1c-1.9,2.4-3.8,4.8-5.5,7.3
					c0-1.7-0.3-3.5-0.8-5.1c-0.6-2.2-4-1.3-3.4,0.9c0.5,2,0.6,3.9,0.5,6c0,1-0.2,2.1-0.3,3.1c-0.1,0.8-0.3,1.8-0.2,2.7
					c-0.2,0.5-0.3,1.1-0.4,1.6c-0.2,1.2,1.7,1.9,2.4,1c1-1.2,1.6-2.6,2.3-4c0.7-1.4,1.5-2.7,2.4-4c1-1.5,2-3,3.1-4.4
					c0.2,0,0.4,0,0.6-0.1c0.3-0.1,0.6-0.2,0.9-0.2c0.1,0,0.3-0.1,0.4-0.1c0,0,0,0,0,0c0,0,0,0,0,0c0.6,0,1.2-0.1,1.7,0c0,0,0,0,0,0
					c0,0,0,0,0,0c0.1,0,0.3,0.1,0.4,0.1c0.3,0.1,0.5,0.1,0.8,0.2c0.7,0.2,1.4,0.7,2.2,0.4c0.8-0.2,1.3-1.1,1-1.8
					c-0.3-1-1.3-1.5-2.3-1.8c-0.7-0.2-1.5-0.3-2.2-0.4c-0.3,0-0.6,0-0.9,0c3.4-4.3,7.2-8.4,12.2-10.7
					C122.2,44.6,120.6,42.1,118.9,42.9z"/>
			</g>
		</g>
	</g>
	<text transform="matrix(1 0 0 1 12.6102 117.9883)" class="st2 st3 st4">PANTRY</text>
</g>
</svg>
