<?xml version="1.0" encoding="utf-8"?>
<!-- Generator: Adobe Illustrator 25.2.3, SVG Export Plug-In . SVG Version: 6.00 Build 0)  -->
<svg version="1.1" xmlns="http://www.w3.org/2000/svg" xmlns:xlink="http://www.w3.org/1999/xlink" x="0px" y="0px"
	 viewBox="0 0 24 24" style="enable-background:new 0 0 24 24;" xml:space="preserve">
<style type="text/css">
	.st0{fill:#346737;}
	.st1{fill:#FFFFFF;}
	.st2{fill:#FFFFFF;stroke:#FFFFFF;stroke-width:0.155;stroke-miterlimit:10;}
	.st3{font-family:'Arbotek-LightRounded';}
	.st4{font-size:4.649px;}
</style>
<g id="Layer_1">
</g>
<g id="Isolation_Mode">
	<g>
		<rect class="st0" width="24" height="24"/>
		<g>
			<g>
				<g>
					<path class="st1" d="M9.6,10.5c-0.3-1-1.1-1.9-2.2-2C6.4,8.5,5.5,9,4.7,9.5c0,0,0,0,0,0C4.6,9.4,4.5,9.3,4.5,9.2
						C4.3,9.1,4.2,8.9,4.1,8.8c-0.1-0.1-0.3-0.1-0.4,0c-0.1,0.1-0.1,0.3,0,0.4C3.8,9.4,3.9,9.5,4,9.6c0,0,0.1,0.1,0.1,0.1
						c0,0-0.1,0-0.1,0.1c-0.5,0.2-1.1,0.3-1.5,0.8c-0.3,0.4-0.4,0.9-0.4,1.4c0,0.6,0.2,1.2,0.4,1.7c0.2,0.6,0.5,1.1,1,1.5
						C3.7,15.4,4,15,3.8,14.9c-0.7-0.6-1-1.6-1.1-2.5c-0.1-0.4-0.1-0.9,0.1-1.2C3,10.7,3.5,10.6,4,10.5c1-0.4,1.9-1.2,3-1.3
						c0.9-0.1,1.7,0.5,2,1.3c0.4,1.2,0,2.4-0.4,3.6c-0.1,0.4,0.5,0.5,0.6,0.2C9.6,13.1,9.9,11.7,9.6,10.5z"/>
					<path class="st1" d="M14.5,5.5C14.3,5.2,14,5,13.7,4.8c-0.2-0.1-0.3-0.3-0.5-0.4c0.2-0.1,0.2-0.3,0.2-0.4c0-0.2,0-0.4,0-0.6
						c0-0.4-0.1-0.7-0.5-0.7c-0.4-0.1-0.8,0-1.2,0c-0.4,0-0.8,0.1-1.2,0.1c-0.2,0-0.4,0-0.6,0.1c-0.2,0-0.4,0-0.6,0.1
						C9,3,9,3.4,9,3.8c0,0.2-0.1,0.5,0.2,0.6c0,0,0,0,0,0c0,0,0,0,0,0C8.7,4.7,8.4,5,8,5.2C7.9,5.4,7.7,5.5,7.7,5.7
						c-0.1,0.2-0.1,0.4,0,0.6c0,0.5,0,1,0,1.5c0,0.3,0.5,0.3,0.5,0c0-0.4,0-0.9,0-1.3c0-0.2,0-0.4,0-0.6c0-0.2,0.2-0.3,0.4-0.3
						c0.3-0.2,0.6-0.4,1-0.7C9.6,4.8,9.8,4.7,10,4.6c0.2-0.1,0.3-0.1,0.5-0.3c0.5,0,1,0,1.6,0c0.1,0,0.2,0,0.3,0c0,0,0,0,0,0
						c0.5,0.4,1,0.9,1.5,1.3c0.2,0.2,0.3,0.4,0.4,0.7c0,0.3,0,0.7,0,1l0,4.1c0,0.8,0,1.6,0,2.4c0,0.3,0.3,0.3,0.4,0.3
						c0,0,0.1,0,0.1-0.1c0.1,0,0.1-0.1,0.1-0.2c0-1.4,0-2.9,0-4.3c0-0.7,0-1.5,0-2.2C14.9,6.8,15,6,14.5,5.5z M11.3,3.8
						c-0.6,0-1.2,0-1.8,0c0,0,0,0,0,0c0-0.1,0-0.2,0-0.3c0-0.1,0-0.2,0-0.2c0.1-0.1,0.2,0,0.3-0.1c0.5,0,1-0.1,1.5-0.1
						c0.5,0,1,0,1.4,0c0.1,0,0.1,0,0.2,0c0,0,0,0,0,0c0,0,0,0.1,0,0.1c0,0.2,0,0.3,0,0.5c-0.1,0-0.2,0-0.2,0c-0.1,0-0.3,0-0.4,0
						C11.9,3.8,11.6,3.8,11.3,3.8z"/>
					<path class="st1" d="M12.2,6C12,5.9,11.6,6,11.4,6c-0.3,0-0.6,0-0.8,0C10,6,9.5,6,8.9,6.1c-0.4,0-0.4,0.6,0,0.6
						c0.5,0,1.1,0,1.6,0c0.3,0,0.5,0,0.8,0c0.1,0,0.3,0,0.4,0c0.2,0,0.3,0,0.4-0.1C12.4,6.4,12.4,6.1,12.2,6z"/>
					<path class="st1" d="M21.8,7c-0.1-0.6-0.6-1-1.2-1.1c-0.6-0.1-1.2,0-1.8-0.3c-0.3-0.1-0.6-0.4-1-0.4c-0.3-0.1-0.7,0-1,0.1
						c-0.1,0-0.2,0.1-0.2,0.1c-0.1,0-0.1,0.1-0.2,0.1c0,0,0,0,0,0c0,0-0.1,0-0.1,0.1c-0.3,0.3-0.6,0.7-0.7,1.2
						c-0.1,0.4,0.5,0.5,0.6,0.2c0.1-0.5,0.4-0.9,0.9-1.1c0.2-0.1,0.4-0.1,0.7-0.1C18,5.8,18.2,6,18.5,6.1c0.5,0.3,1.1,0.2,1.7,0.3
						c0.4,0,0.9,0.2,1,0.6c0.1,0.5,0,1.1-0.1,1.6c-0.2,0.6-0.6,1-0.9,1.4c-0.3,0.4-0.6,1-0.7,1.5c-0.1,0.3-0.1,0.6-0.1,0.8
						c0,0.3,0,0.5,0,0.8c-0.1,0.3-0.3,0.5-0.5,0.6c-0.2,0-0.4,0-0.6,0c0,0,0,0,0,0c-0.6-0.1-1.3-0.5-1.8-0.8
						c-0.3-0.2-0.6,0.3-0.3,0.5c0,0,0.1,0.1,0.1,0.1c0.2,0.1,0.3,0.2,0.5,0.3c0.4,0.2,0.8,0.4,1.2,0.5c0.6,0.2,1.3,0.1,1.8-0.3
						c0.5-0.5,0.4-1.1,0.4-1.7c0-0.6,0.2-1.2,0.5-1.8c0.2-0.3,0.4-0.5,0.6-0.8c0.2-0.3,0.3-0.5,0.5-0.8C21.8,8.3,21.9,7.6,21.8,7z"
						/>
				</g>
				<path class="st1" d="M19.8,7.1c-0.5,0.2-0.9,0.5-1.3,0.8c0-0.1,0-0.2,0-0.3c-0.1-0.3-0.2-0.6-0.4-0.9c-0.1-0.1-0.2-0.2-0.3-0.1
					c-0.1,0.1-0.2,0.2-0.1,0.3c0.2,0.2,0.2,0.5,0.3,0.8c0,0,0,0.1,0,0.1c0,0,0,0.1,0,0.1c0,0.1,0,0.1,0,0.2c0,0,0,0.1,0,0.1
					c0,0,0,0,0,0c0,0,0,0,0,0c0,0.1,0,0.2,0,0.3c-0.2,0.2-0.3,0.3-0.4,0.5c-0.3,0.4-0.6,0.8-0.9,1.2c0-0.3,0-0.6-0.1-0.9
					c-0.1-0.4-0.7-0.2-0.6,0.2c0.1,0.3,0.1,0.7,0.1,1c0,0.2,0,0.3,0,0.5c0,0.1-0.1,0.3,0,0.4c0,0.1-0.1,0.2-0.1,0.3
					c0,0.2,0.3,0.3,0.4,0.2c0.2-0.2,0.3-0.4,0.4-0.7c0.1-0.2,0.3-0.4,0.4-0.7c0.2-0.3,0.3-0.5,0.5-0.7c0,0,0.1,0,0.1,0
					c0,0,0.1,0,0.1,0c0,0,0,0,0.1,0c0,0,0,0,0,0c0,0,0,0,0,0c0.1,0,0.2,0,0.3,0c0,0,0,0,0,0c0,0,0,0,0,0c0,0,0,0,0.1,0
					c0,0,0.1,0,0.1,0c0.1,0,0.2,0.1,0.4,0.1c0.1,0,0.2-0.2,0.2-0.3c-0.1-0.2-0.2-0.2-0.4-0.3c-0.1,0-0.2-0.1-0.4-0.1
					c-0.1,0-0.1,0-0.2,0c0.6-0.7,1.2-1.4,2-1.8C20.4,7.4,20.1,7,19.8,7.1z"/>
			</g>
		</g>
	</g>
	<text transform="matrix(1 0 0 1 2.1016 19.6641)" class="st2 st3 st4">PANTRY</text>
</g>
</svg>
